#!OML:ASF F:\VICON\USERDATA\INSTALL\rory3\rory3.ASF
:FULLY-SPECIFIED
:DEGREES
379
root -1.29664 16.1358 13.5522 0.214896 4.83766 0.966392
lowerback 13.5551 0.367435 -5.93213
upperback -4.79009 -0.375654 2.04374
thorax -12.9425 0.426155 5.73618
lowerneck -10.8263 -6.04023 -3.67476
upperneck 20.5547 -8.30946 2.84576
head 8.44805 -3.93689 0.677489
rclavicle -8.57259e-015 1.98785e-015
rhumerus -37.5174 -9.20377 -77.4611
rradius 21.1191
rwrist 13.6801
rhand -11.2385 21.4139
rfingers 7.12502
rthumb 14.7907 -8.03826
lclavicle -8.57259e-015 1.98785e-015
lhumerus -40.5683 -0.308994 89.5133
lradius 20.8196
lwrist -1.64711
lhand -4.11514 21.5239
lfingers 7.12502
lthumb 21.6434 50.3343
rfemur -18.0804 15.1834 23.6285
rtibia 34.5506
rfoot -15.7717 -10.3791
rtoes 36.3813
lfemur -21.5558 1.1363 -20.9858
ltibia 74.6958
lfoot 7.49862 0.0818829
ltoes 2.66181
380
root -1.30166 16.1443 13.6718 0.223351 4.70723 0.874191
lowerback 13.5898 0.500663 -5.83518
upperback -4.78678 -0.183548 2.00943
thorax -12.9872 0.508125 5.59591
lowerneck -11.0427 -6.12582 -3.76165
upperneck 20.7427 -8.4319 2.93173
head 8.56377 -3.98686 0.696463
rclavicle 1.46355e-014 0
rhumerus -37.1066 -9.06938 -77.6282
rradius 21.4147
rwrist 13.3493
rhand -11.3007 21.5149
rfingers 7.12502
rthumb 14.7308 -7.94169
lclavicle 1.46355e-014 0
lhumerus -40.657 -0.922152 89.8398
lradius 20.8562
lwrist -1.15315
lhand -4.02326 21.3995
lfingers 7.12502
lthumb 21.7316 50.1996
rfemur -17.4094 15.3891 23.9487
rtibia 34.2696
rfoot -16.2233 -10.397
rtoes 36.4919
lfemur -22.9584 1.37327 -20.9685
ltibia 75.0543
lfoot 5.41287 0.0518493
ltoes 2.26848
381
root -1.30573 16.1528 13.7957 0.280702 4.64167 0.81964
lowerback 13.588 0.589755 -5.74752
upperback -4.81865 -0.0525488 1.96436
thorax -13.0408 0.562693 5.46345
lowerneck -11.3197 -6.19123 -3.78346
upperneck 20.9695 -8.52327 2.94591
head 8.69681 -4.02286 0.681986
rclavicle 4.91992e-015 1.82882e-014
rhumerus -36.6189 -8.90812 -77.7814
rradius 21.5995
rwrist 13.2063
rhand -11.4385 21.8056
rfingers 7.12502
rthumb 14.598 -7.66061
lclavicle 4.91992e-015 1.82882e-014
lhumerus -40.8043 -1.36209 90.0637
lradius 20.9747
lwrist -0.800415
lhand -3.91844 21.3845
lfingers 7.12502
lthumb 21.8323 50.1729
rfemur -16.7734 15.5494 24.2216
rtibia 34.0481
rfoot -16.6311 -10.5017
rtoes 36.0357
lfemur -24.2513 1.53777 -21.0133
ltibia 75.1358
lfoot 3.78828 0.176227
ltoes 1.71781
382
root -1.31038 16.1548 13.9236 0.356992 4.62971 1.02753
lowerback 13.4421 0.653506 -5.95639
upperback -4.83183 -0.0127314 1.84019
thorax -12.9755 0.589536 5.43116
lowerneck -11.2976 -6.19603 -3.70784
upperneck 20.9514 -8.56177 3.01987
head 8.68791 -4.02805 0.690987
rclavicle 5.39203e-015 2.78299e-015
rhumerus -36.1932 -8.65573 -78.0763
rradius 22.0033
rwrist 12.9711
rhand -11.5814 21.3946
rfingers 7.12502
rthumb 14.4603 -8.08161
lclavicle 5.39203e-015 2.78299e-015
lhumerus -41 -1.57597 90.1259
lradius 21.1404
lwrist -0.472356
lhand -3.94335 21.2964
lfingers 7.12502
lthumb 21.8084 50.0876
rfemur -16.1288 15.5897 24.2224
rtibia 33.8784
rfoot -16.9647 -10.574
rtoes 35.5309
lfemur -25.3184 1.5224 -21.4072
ltibia 74.9283
lfoot 2.34311 0.518571
ltoes 1.05179
383
root -1.31256 16.1524 14.0499 0.42158 4.59346 1.13362
lowerback 13.333 0.713146 -6.04387
upperback -4.87718 0.0470656 1.75683
thorax -12.9714 0.621223 5.37186
lowerneck -11.2834 -6.19783 -3.75704
upperneck 21.1292 -8.57451 3.07022
head 8.7512 -4.03066 0.712346
rclavicle -2.95692e-015 -9.54166e-015
rhumerus -35.9093 -8.15015 -78.4554
rradius 22.5185
rwrist 12.2577
rhand -11.8484 20.9937
rfingers 7.12502
rthumb 14.2031 -8.5007
lclavicle -2.95692e-015 -9.54166e-015
lhumerus -41.3171 -1.72516 90.1914
lradius 21.2751
lwrist -0.23601
lhand -4.03943 21.0239
lfingers 7.12502
lthumb 21.7161 49.8258
rfemur -15.5176 15.6903 24.3156
rtibia 33.7258
rfoot -17.3893 -10.652
rtoes 35.0276
lfemur -26.3047 1.53394 -21.6985
ltibia 74.6003
lfoot 0.902619 0.952183
ltoes 2.34811
384
root -1.31777 16.1477 14.1672 0.499721 4.48546 0.869575
lowerback 13.3379 0.799458 -5.81585
upperback -4.96454 0.209541 1.79827
thorax -13.0956 0.687789 5.24984
lowerneck -11.1953 -6.21751 -3.84657
upperneck 21.1991 -8.59634 3.09976
head 8.7654 -4.04536 0.73608
rclavicle 4.07509e-015 3.57812e-015
rhumerus -35.6999 -7.57382 -78.7137
rradius 22.9197
rwrist 11.7019
rhand -12.5129 22.0391
rfingers 7.12502
rthumb 13.5627 -7.49919
lclavicle 4.07509e-015 3.57812e-015
lhumerus -41.4897 -1.69681 90.1865
lradius 21.2727
lwrist -0.199451
lhand -3.93911 20.9832
lfingers 7.12502
lthumb 21.8124 49.774
rfemur -15.0066 16.0498 24.8163
rtibia 33.5364
rfoot -17.8098 -10.89
rtoes 34.5769
lfemur -27.5498 1.70981 -21.5118
ltibia 74.2735
lfoot -0.385896 1.28854
ltoes 3.59615
385
root -1.32111 16.1456 14.2866 0.533932 4.47154 0.675718
lowerback 13.3597 0.836547 -5.65266
upperback -5.02003 0.291901 1.82855
thorax -13.1822 0.718987 5.17146
lowerneck -11.1623 -6.20959 -3.75716
upperneck 21.175 -8.57065 2.95916
head 8.73918 -4.04145 0.679342
rclavicle -4.19933e-015 -1.19271e-015
rhumerus -35.3753 -7.19624 -78.8512
rradius 23.2732
rwrist 11.5677
rhand -12.946 23.2744
rfingers 7.12502
rthumb 13.1452 -6.29125
lclavicle -4.19933e-015 -1.19271e-015
lhumerus -41.7202 -1.67201 90.2049
lradius 21.4927
lwrist -0.00781698
lhand -3.83772 21.255
lfingers 7.12502
lthumb 21.9098 50.0344
rfemur -14.3867 16.3159 25.2398
rtibia 33.2872
rfoot -18.3116 -10.9863
rtoes 34.8742
lfemur -28.7208 1.72967 -21.423
ltibia 73.7539
lfoot -1.52291 1.63964
ltoes 4.01848
386
root -1.31973 16.1423 14.4098 0.470685 4.61025 0.541523
lowerback 13.4617 0.845646 -5.38941
upperback -5.05586 0.340675 1.77099
thorax -13.2863 0.720569 4.94578
lowerneck -11.1383 -6.2693 -3.81143
upperneck 21.2316 -8.66996 3.06166
head 8.76541 -4.0815 0.710687
rclavicle -1.29459e-014 1.15295e-014
rhumerus -35.0791 -7.09523 -78.9759
rradius 23.6533
rwrist 11.3435
rhand -12.9809 23.2469
rfingers 7.12502
rthumb 13.1116 -6.32095
lclavicle -1.29459e-014 1.15295e-014
lhumerus -42.0183 -1.73735 90.2048
lradius 21.7055
lwrist 0.148937
lhand -4.05599 21.0724
lfingers 7.12502
lthumb 21.7002 49.8762
rfemur -13.5954 16.3247 25.6135
rtibia 32.9919
rfoot -18.7098 -11.0586
rtoes 34.7793
lfemur -29.6616 1.49026 -21.4102
ltibia 72.9994
lfoot -2.6064 2.02882
ltoes 6.52312
387
root -1.31807 16.1382 14.5369 0.441383 4.76971 0.493079
lowerback 13.5056 0.856503 -5.2513
upperback -5.09426 0.370853 1.70758
thorax -13.3579 0.722468 4.78899
lowerneck -10.9779 -6.34104 -3.8972
upperneck 21.1874 -8.78493 3.18831
head 8.73558 -4.13249 0.759241
rclavicle 1.44616e-014 -5.1684e-015
rhumerus -34.8426 -7.04129 -79.098
rradius 24.0295
rwrist 11.1659
rhand -12.7805 22.7198
rfingers 7.12502
rthumb 13.3047 -6.83547
lclavicle 1.44616e-014 -5.1684e-015
lhumerus -42.1619 -1.89952 90.2796
lradius 21.6888
lwrist 0.367759
lhand -4.16362 20.7109
lfingers 7.12502
lthumb 21.5968 49.5266
rfemur -12.8 16.3078 25.9082
rtibia 32.7033
rfoot -19.114 -11.248
rtoes 34.1248
lfemur -30.4223 1.13295 -21.47
ltibia 71.972
lfoot -3.76505 2.22738
ltoes 8.00027
388
root -1.31587 16.1362 14.6609 0.492784 4.9157 0.536675
lowerback 13.4767 0.842438 -5.27963
upperback -5.13096 0.34237 1.66672
thorax -13.3795 0.710803 4.76648
lowerneck -10.9836 -6.35635 -3.91971
upperneck 21.246 -8.80305 3.18281
head 8.75822 -4.14244 0.757962
rclavicle -2.45996e-015 2.5842e-015
rhumerus -34.5424 -6.7634 -79.2681
rradius 24.3925
rwrist 10.9404
rhand -12.477 22.2776
rfingers 7.12502
rthumb 13.5973 -7.25833
lclavicle -2.45996e-015 2.5842e-015
lhumerus -42.2762 -1.83684 90.2936
lradius 21.7116
lwrist 0.526388
lhand -4.20624 20.6621
lfingers 7.12502
lthumb 21.5559 49.4824
rfemur -12.0962 16.2637 26.0583
rtibia 32.4051
rfoot -19.4605 -11.3847
rtoes 33.8226
lfemur -31.1719 0.752572 -21.6325
ltibia 70.7695
lfoot -4.93949 2.47114
ltoes 7.77383
389
root -1.31189 16.1363 14.7823 0.586045 4.98807 0.534013
lowerback 13.4522 0.855934 -5.26103
upperback -5.16647 0.362544 1.64734
thorax -13.408 0.719307 4.72923
lowerneck -11.0196 -6.33655 -3.9131
upperneck 21.2785 -8.75827 3.10391
head 8.77004 -4.12776 0.734219
rclavicle 2.90723e-015 2.42517e-014
rhumerus -34.3303 -6.2037 -79.5363
rradius 25.0992
rwrist 10.2714
rhand -12.2504 21.7955
rfingers 7.12502
rthumb 13.8157 -7.7257
lclavicle 2.90723e-015 2.42517e-014
lhumerus -42.3748 -1.61652 90.2453
lradius 21.7683
lwrist 0.557196
lhand -4.3335 20.6165
lfingers 7.12502
lthumb 21.4337 49.4509
rfemur -11.4546 16.2315 26.2126
rtibia 32.0371
rfoot -19.803 -11.3989
rtoes 33.8844
lfemur -31.9764 0.32759 -21.7096
ltibia 69.405
lfoot -5.97687 2.72928
ltoes 8.27143
390
root -1.31088 16.1383 14.9023 0.65535 5.02553 0.436112
lowerback 13.4786 0.89065 -5.15143
upperback -5.21346 0.424415 1.61609
thorax -13.4841 0.740476 4.61691
lowerneck -10.6418 -6.32504 -3.94143
upperneck 20.931 -8.76034 3.23106
head 8.58977 -4.12863 0.798182
rclavicle 4.79568e-015 -1.19271e-015
rhumerus -34.1297 -5.85897 -79.8102
rradius 25.8983
rwrist 9.59334
rhand -11.6846 20.9798
rfingers 7.12502
rthumb 14.3609 -8.50345
lclavicle 4.79568e-015 -1.19271e-015
lhumerus -42.4582 -1.41749 90.092
lradius 21.8005
lwrist 0.462695
lhand -4.3589 20.5234
lfingers 7.12502
lthumb 21.4093 49.3606
rfemur -10.7897 16.3107 26.4999
rtibia 31.6059
rfoot -20.0774 -11.4718
rtoes 33.9168
lfemur -32.7165 -0.118008 -21.6165
ltibia 67.8312
lfoot -6.76091 2.77416
ltoes 7.93606
